<?xml version="1.0" standalone="no"?><!DOCTYPE svg PUBLIC "-//W3C//DTD SVG 1.1//EN" "http://www.w3.org/Graphics/SVG/1.1/DTD/svg11.dtd"><svg t="1527491030758" class="icon" style="" viewBox="0 0 1024 1024" version="1.1" xmlns="http://www.w3.org/2000/svg" p-id="3629" xmlns:xlink="http://www.w3.org/1999/xlink" width="200" height="200"><defs><style type="text/css"></style></defs><path d="M999.936 790.016l-220.16-102.912h4.096l220.16 102.912H1000.96h-1.024" fill="#224365" p-id="3630"></path><path d="M1005.056 790.016l-220.16-102.912h4.096l220.16 102.912h-4.096" fill="#214162" p-id="3631"></path><path d="M1008.64 790.528l-220.16-102.912H790.016s0.512 0 0.512 0.512l220.672 102.912s-0.512 0-0.512-0.512h-0.512H1008.64" fill="#203F5F" p-id="3632"></path><path d="M880.64 813.056l-217.088-105.472 116.224-20.48 220.16 102.912z" fill="#144F7F" p-id="3633"></path><path d="M732.16 841.216L519.68 732.16l96.768-16.384 215.04 106.496z" fill="#20405F" p-id="3634"></path><path d="M831.488 822.272l-215.04-106.496 15.872-446.976 221.184 82.944z" fill="#1A334D" p-id="3635"></path><path d="M856.576 291.328l-222.208-79.872h10.24l222.72 79.36h-7.68c-1.536 0.512-2.56 0.512-3.072 0.512" fill="#427AA8" p-id="3636"></path><path d="M866.304 291.328l-222.72-79.36c0.512 0 1.536 0 2.048 0.512 0.512 0 1.536 0 2.048 0.512 0.512 0 1.024 0.512 2.048 0.512 0.512 0 1.024 0.512 2.048 0.512l222.72 79.36c-0.512 0-1.024-0.512-2.048-0.512-0.512 0-1.536-0.512-2.048-0.512-0.512 0-1.536-0.512-2.048-0.512-0.512-0.512-1.536-0.512-2.048-0.512" fill="#427AA8" p-id="3637"></path><path d="M873.984 292.864l-222.72-79.36 222.72 79.36c0.512 0.512 0.512 0.512 0 0 0.512 0 0.512 0 0 0 0.512 0 0.512 0 0 0" fill="#427AA8" p-id="3638"></path><path d="M578.048 870.4l-207.36-112.64 99.84-16.896 210.944 110.08z" fill="#20405F" p-id="3639"></path><path d="M754.688 304.128l-219.136-81.408 98.816-11.264 222.208 79.872z" fill="#427AA8" p-id="3640"></path><path d="M681.472 850.944l-210.944-110.08 17.92-629.76 219.136 75.264z" fill="#1A334D" p-id="3641"></path><path d="M525.824 880.64l-205.824-113.664 4.608-228.352 208.384 101.376z" fill="#1A334D" p-id="3642"></path><path d="M418.304 901.12l-201.728-116.736 103.424-17.408 205.824 113.664z" fill="#20405F" p-id="3643"></path><path d="M709.632 123.904L489.984 51.712h7.68c1.024 0 1.536 0 2.56 0.512l220.16 72.192c-1.024 0-1.536 0-2.56-0.512h-8.192" fill="#224365" p-id="3644"></path><path d="M720.384 123.904l-220.16-72.192c0.512 0 1.024 0 1.536 0.512 0.512 0 1.024 0 1.536 0.512 0.512 0 1.024 0.512 1.536 0.512 0.512 0 1.024 0.512 1.536 0.512l220.16 72.192c-0.512 0-1.024-0.512-1.536-0.512-0.512 0-1.024-0.512-1.536-0.512-0.512 0-1.024-0.512-1.536-0.512-0.512 0-1.024 0-1.536-0.512" fill="#214162" p-id="3645"></path><path d="M426.496 595.968L221.184 495.616l104.96-14.848 208.896 98.304zM603.136 135.168L387.072 61.44l102.912-9.728 219.648 72.192z" fill="#5B90BC" p-id="3646"></path><path d="M364.032 911.36l-199.68-117.76 2.56-231.936 202.752 104.96z" fill="#1A334D" p-id="3647"></path><path d="M252.928 932.352l-196.096-120.32 107.52-18.432 199.68 117.76z" fill="#20405F" p-id="3648"></path><path d="M369.664 666.624l-202.24-104.448v-3.072c0-1.024 0-2.048 0.512-3.072 0-1.024 0-2.048 0.512-3.072 0-1.024 0.512-2.048 0.512-3.072l202.752 103.936c0 1.024-0.512 2.048-0.512 3.072s-0.512 2.048-0.512 3.072c0 1.024 0 2.048-0.512 3.072-0.512 1.024-0.512 2.56-0.512 3.584M371.2 653.312l-202.752-103.936c0-1.024 0.512-1.536 0.512-2.56s0.512-1.536 0.512-2.56 0.512-1.536 0.512-2.56 0.512-1.536 1.024-2.56L373.76 643.072c-0.512 1.024-0.512 1.536-1.024 2.56s-0.512 1.536-0.512 2.56-0.512 1.536-0.512 2.56c-0.512 1.024-0.512 1.536-0.512 2.56" fill="#5B90BC" p-id="3649"></path><path d="M373.76 643.072l-202.752-103.424c0-0.512 0.512-1.536 0.512-2.048 0-0.512 0.512-1.536 1.024-2.048 0.512-0.512 0.512-1.024 1.024-2.048l1.024-2.048 203.264 102.912c-0.512 0.512-0.512 1.536-1.024 2.048-0.512 0.512-0.512 1.536-1.024 2.048-0.512 0.512-0.512 1.536-1.024 2.048-0.512 1.536-0.512 2.048-1.024 2.56" fill="#5B90BC" p-id="3650"></path><path d="M377.344 635.392L174.08 532.48c0.512-0.512 0.512-1.024 1.024-1.536s0.512-1.024 1.024-1.536c0.512-0.512 0.512-1.024 1.024-1.536 0.512-0.512 0.512-1.024 1.024-1.536l203.264 102.4c-0.512 0.512-0.512 1.024-1.024 1.536-0.512 0.512-0.512 1.024-1.024 2.048-0.512 0.512-0.512 1.024-1.024 2.048-0.512-0.512-1.024 0-1.024 1.024M381.44 627.712l-203.264-102.4c0.512-0.512 0.512-1.024 1.024-1.536 0.512-0.512 0.512-1.024 1.024-1.536 0.512-0.512 0.512-1.024 1.024-1.536s1.024-1.024 1.024-1.536l203.264 101.888c-0.512 0.512-1.024 1.024-1.024 1.536-0.512 0.512-1.024 1.024-1.024 1.536-0.512 0.512-1.024 1.024-1.024 1.536-0.512 1.024-1.024 1.536-1.024 2.048M386.048 621.056l-203.264-101.888 1.536-1.536 1.536-1.536 1.536-1.536 1.536-1.536L391.68 614.4l-1.536 1.536-1.536 1.536-1.536 1.536c0 1.024-0.512 1.536-1.024 2.048" fill="#5B90BC" p-id="3651"></path><path d="M391.68 614.4l-203.776-101.888 1.536-1.536c0.512-0.512 1.024-1.024 2.048-1.536 0.512-0.512 1.024-1.024 2.048-1.536 0.512-0.512 1.536-1.024 2.048-1.536l204.288 101.376c-0.512 0.512-1.536 1.024-2.048 1.536-0.512 0.512-1.536 1.024-2.048 1.536-0.512 0.512-1.536 1.024-2.048 1.536-0.512 1.024-1.024 1.536-2.048 2.048" fill="#5B90BC" p-id="3652"></path><path d="M399.872 607.744L195.584 506.368c2.048-1.536 4.096-2.56 6.144-4.096l6.144-3.072c2.048-1.024 4.096-1.536 6.656-2.56 2.048-0.512 4.608-1.024 6.656-1.536l205.312 100.352c-2.56 0.512-4.608 1.024-7.168 1.536-2.56 0.512-4.608 1.536-6.656 2.56s-4.608 2.048-6.656 3.584l-6.144 4.608" fill="#5B90BC" p-id="3653"></path><path d="M535.04 579.072L326.144 480.768l7.168-354.304 213.504 77.824z" fill="#427AA8" p-id="3654"></path><path d="M546.816 204.288L333.312 126.464v-3.072c0-1.024 0-2.048 0.512-3.072 0-1.024 0.512-2.048 0.512-3.072 0-1.024 0.512-2.048 0.512-3.072l213.504 77.312c0 1.024-0.512 2.048-0.512 3.072 0 1.024-0.512 2.048-0.512 3.584 0 1.024 0 2.048-0.512 3.584v2.56M548.352 190.976L334.848 113.664c0-1.024 0.512-1.536 0.512-2.56s0.512-1.536 0.512-2.56 0.512-1.536 0.512-2.56 0.512-1.536 1.024-2.56l214.016 76.8c-0.512 1.024-0.512 1.536-1.024 2.56s-0.512 1.536-0.512 2.56-0.512 1.536-0.512 2.56c-0.512 1.536-1.024 2.048-1.024 3.072" fill="#5B90BC" p-id="3655"></path><path d="M550.912 180.736l-214.016-76.8c0-0.512 0.512-1.536 0.512-2.048 0-0.512 0.512-1.536 1.024-2.048 0.512-0.512 0.512-1.024 1.024-2.048l1.024-2.048 214.016 76.288c-0.512 0.512-0.512 1.536-1.024 2.048-0.512 0.512-0.512 1.536-1.024 2.048-0.512 0.512-0.512 1.536-1.024 2.048 0 1.536 0 2.048-0.512 2.56" fill="#5B90BC" p-id="3656"></path><path d="M554.496 172.544L340.48 96.768c0.512-0.512 0.512-1.024 1.024-1.536 0.512-0.512 0.512-1.024 1.024-1.536s0.512-1.024 1.024-1.536c0.512-0.512 0.512-1.024 1.024-1.536l214.016 75.776c-0.512 0.512-0.512 1.024-1.024 1.536-0.512 0.512-0.512 1.024-1.024 2.048-0.512 0.512-0.512 1.024-1.024 2.048-0.512-0.512-0.512 0-1.024 0.512M558.592 165.376L344.576 89.6c0.512-0.512 0.512-1.024 1.024-1.536 0.512-0.512 0.512-1.024 1.024-1.536 0.512-0.512 0.512-1.024 1.024-1.536 0.512-0.512 1.024-1.024 1.024-1.536L563.2 158.72c-0.512 0.512-1.024 1.024-1.024 1.536-0.512 0.512-1.024 1.024-1.024 1.536-0.512 0.512-1.024 1.024-1.024 1.536-1.024 1.024-1.024 1.536-1.536 2.048" fill="#5B90BC" p-id="3657"></path><path d="M563.2 158.72L348.672 83.456l1.536-1.536 1.536-1.536 1.536-1.536 1.536-1.536 214.528 74.752-1.536 1.536-1.536 1.536-1.536 1.536c-0.512 1.024-1.024 1.536-1.536 2.048" fill="#5B90BC" p-id="3658"></path><path d="M568.832 152.064L354.304 77.312l1.536-1.536c0.512-0.512 1.024-1.024 2.048-1.536 0.512-0.512 1.024-1.024 2.048-1.536 0.512-0.512 1.024-1.024 2.048-1.536l215.04 74.24c-0.512 0.512-1.536 1.024-2.048 1.536-0.512 0.512-1.536 1.024-2.048 1.536-0.512 0.512-1.536 1.024-2.048 1.536-0.512 1.024-1.024 1.536-2.048 2.048" fill="#5B90BC" p-id="3659"></path><path d="M577.024 145.408l-215.04-74.24c2.048-1.536 4.096-2.56 5.632-3.584l6.144-3.072c2.048-1.024 4.096-1.536 6.656-2.048 2.048-0.512 4.608-1.024 6.656-1.024l216.064 73.728c-2.56 0-4.608 0.512-7.168 1.024-2.048 0.512-4.608 1.536-6.656 2.048-2.048 1.024-4.608 2.048-6.656 3.072-2.048 1.536-4.096 2.56-5.632 4.096" fill="#5B90BC" p-id="3660"></path><path d="M217.6 987.648L24.064 863.744c-3.072-2.048-6.144-4.608-8.704-7.68s-5.12-6.144-6.656-9.728c-2.048-3.584-3.072-7.68-4.096-11.776-1.024-4.096-1.536-8.704-1.536-13.312l193.536 121.856c0 5.12 0.512 9.728 1.536 14.336 1.024 4.608 2.56 8.704 4.096 12.288 2.048 3.584 4.096 7.168 6.656 10.24 2.56 3.072 5.632 5.632 8.704 7.68" fill="#144F7F" p-id="3661"></path><path d="M196.096 943.104L2.56 821.76l3.072-756.224 201.728 77.312z" fill="#427AA8" p-id="3662"></path><path d="M999.936 790.016c3.072-0.512 6.144-0.512 9.216 0.512 2.56 1.024 5.12 2.56 7.168 4.608 2.048 2.048 3.584 4.608 4.608 8.192 1.024 3.072 1.536 6.656 1.024 10.752 0 4.096-1.024 7.68-2.56 11.264-1.536 3.584-3.072 7.168-5.632 9.728-2.048 3.072-5.12 5.632-7.68 7.68-3.072 2.048-6.144 3.584-9.216 4.096L251.904 993.28c-7.68 1.536-15.36 1.024-22.016-0.512-6.656-1.536-12.8-5.12-17.92-9.728-5.12-4.608-9.216-10.24-11.776-16.896-2.56-6.656-4.096-14.336-4.096-23.04l11.264-800.256c0-4.608 1.024-9.216 2.56-13.312s3.584-8.192 6.656-11.264c2.56-3.072 6.144-6.144 9.728-8.192 3.584-2.048 7.68-3.584 11.776-3.584 4.096-0.512 8.192 0 11.264 1.536 3.584 1.536 6.656 3.584 9.216 6.144s4.608 6.144 6.144 9.728c1.536 3.584 2.048 8.192 2.048 12.8L252.928 931.84l111.104-20.992 5.632-244.736c0-8.704 2.048-16.896 5.12-24.576s7.168-15.36 12.288-21.504c5.12-6.656 11.264-11.776 17.92-15.872 6.656-4.096 13.824-7.168 21.504-8.192l108.544-16.896 11.776-374.272c0.512-8.704 2.048-17.408 5.12-25.088 3.072-7.68 7.168-15.36 12.288-21.504 5.12-6.144 11.264-11.776 17.92-15.36 6.656-4.096 13.824-6.656 21.504-7.168l106.496-11.264c7.168-0.512 14.336 0.512 20.48 2.56 6.144 2.56 11.776 6.656 15.872 11.776 4.608 5.12 8.192 11.264 10.24 18.432 2.56 7.168 3.584 15.36 3.072 23.552l-5.12 123.392 101.888-12.8c7.168-1.024 13.312 0 19.456 2.048 5.632 2.048 11.264 6.144 15.36 10.752 4.096 5.12 7.68 10.752 9.728 17.92 2.048 6.656 3.072 14.336 2.56 23.04l-23.04 467.968 119.296-23.04z m-318.464 60.928l26.112-664.064-106.496 11.776-23.04 671.744 103.424-19.456m150.016-28.672l22.016-470.528-101.888 13.824-19.968 476.16 99.84-19.456M525.824 880.64l7.68-240.64-108.544 17.408-6.656 243.712 107.52-20.48" fill="#336699" p-id="3663"></path><path d="M207.36 142.848L5.632 65.536v-1.536-1.536-1.536c0-0.512 0-1.024 0.512-1.536l201.728 76.8c0 0.512 0 1.024-0.512 1.536v5.12M208.384 135.68l-201.728-76.8c0-0.512 0-1.024 0.512-1.536 0-0.512 0-1.024 0.512-1.024 0-0.512 0-1.024 0.512-1.024 0-0.512 0.512-1.024 0.512-1.024l201.728 76.8c0 0.512-0.512 1.024-0.512 1.536 0 0.512-0.512 1.024-0.512 1.536s0 1.024-0.512 1.536c-0.512-0.512-0.512 0-0.512 0M209.92 130.56l-201.728-76.8c0-0.512 0-0.512 0.512-1.024 0-0.512 0.512-0.512 0.512-1.024s0.512-0.512 0.512-1.024 0.512-0.512 0.512-1.024l202.24 76.288c0 0.512-0.512 0.512-0.512 1.024s-0.512 0.512-0.512 1.024-0.512 0.512-0.512 1.024c-1.024 1.024-1.024 1.024-1.024 1.536" fill="#5B90BC" p-id="3664"></path><path d="M211.456 126.464L9.216 49.664c0-0.512 0.512-0.512 0.512-1.024 0.512 0 0.512 0 0.512-0.512s0.512-0.512 0.512-1.024 0.512-0.512 0.512-1.024l202.24 76.288c0 0.512-0.512 0.512-0.512 1.024s-0.512 0.512-0.512 1.024-0.512 0.512-0.512 1.024c0 0-0.512 0.512-0.512 1.024" fill="#5B90BC" p-id="3665"></path><path d="M213.504 122.368L11.264 46.592c0-0.512 0.512-0.512 0.512-1.024s0.512-0.512 0.512-1.024 0.512-0.512 0.512-1.024 0.512-0.512 0.512-1.024l202.24 75.776c0 0.512-0.512 0.512-0.512 1.024s-0.512 0.512-0.512 1.024-0.512 0.512-0.512 1.024 0 1.024-0.512 1.024" fill="#5B90BC" p-id="3666"></path><path d="M216.064 119.296L13.824 43.008c0-0.512 0.512-0.512 0.512-1.024s0.512-0.512 0.512-1.024c0.512 0 1.024 0 1.024-0.512l0.512-0.512 202.24 75.776-1.024 1.024-1.024 1.024c0 0.512-0.512 0.512-0.512 1.024 0.512-0.512 0 0 0 0.512M219.136 115.712L16.896 39.936l1.024-1.024 1.024-1.024 1.024-1.024c0 0.512 0.512 0 0.512 0L223.232 112.64l-1.024 1.024-1.024 1.024-1.024 1.024c-0.512-0.512-0.512-0.512-1.024 0" fill="#5B90BC" p-id="3667"></path><path d="M223.232 112.128L20.48 36.864c1.024-1.024 2.048-1.536 3.072-2.048 1.024-0.512 2.048-1.024 3.584-1.536 1.024-0.512 2.56-0.512 3.584-1.024 1.024-0.512 2.56-0.512 3.584-0.512h6.144l203.264 75.264h-6.144c-1.536 0-2.56 0.512-3.584 0.512-1.024 0.512-2.56 0.512-3.584 1.024-1.024 0.512-2.56 1.024-3.584 1.536-1.536 0.512-2.56 1.536-3.584 2.048" fill="#5B90BC" p-id="3668"></path><path d="M243.2 107.008L39.936 31.744h2.048c0.512 0 0.512 0 1.024 0.512 0.512 0 0.512 0 1.024 0.512l203.776 75.264c-0.512 0-0.512 0-1.024-0.512-0.512 0-0.512 0-1.024-0.512h-2.56" fill="#5B90BC" p-id="3669"></path><path d="M248.32 108.032L44.544 32.768l203.776 75.264c0.512 0 0.512 0 0 0" fill="#5B90BC" p-id="3670"></path></svg>